<svg xmlns="http://www.w3.org/2000/svg" viewBox="0 0 40 40">
<!-- SVG created with Arrow, by QuiverAI (https://quiver.ai) -->
  <path d="m15.6 35.5c-0.9 0-5.8-0.2-7.4-0.4l-2.3-0.6v-0.5c-0.4-3-1-8.1-1-11 0-9.1 6.9-16.2 17.6-16.5l3.3-0.2c3.4-0.1 6.6-0.6 9.5-2.8 0.5-0.4 0.8-0.7 1-0.8h0.1c0.1 0.1 0.2 0.4 0.2 1.8 0 3-0.9 10.5-3.3 16.5-3.3 8.2-8.1 14.4-17.2 14.5h-0.5z" fill="#FCEBF5"/>
  <path d="m36.1 3.1c0 0.1 0.1 0.5 0.1 1.4 0 2.8-0.8 10.3-3.1 16.3-3 7.6-7.5 14.1-16.9 14.3h-0.6c-1.2 0-5.8-0.1-7.3-0.3l-2-0.6 0.1 0.1c-0.4-3.3-1-8.2-1-11.6 0-8.8 6.5-15.4 17.1-15.9l3.3-0.2c3.3-0.1 6.8-0.5 9.7-2.8 0.2-0.2 0.5-0.4 0.6-0.7m0.1-0.7c-0.6-0.1-0.9 0.4-1.5 0.8-2.8 2.1-5.9 2.5-8.9 2.6-2.4 0.1-4.8 0.2-6.7 0.6-8 1.7-14.4 7.1-14.4 16.3 0 3.1 0.7 8.7 1 12l2.2 0.7c1.6 0.2 6.6 0.4 7.5 0.4h0.7c9.4-0.2 14.1-6.1 17.2-13.5 2.4-5.9 3.7-13.8 3.7-17.8 0-1.1-0.1-1.6-0.2-1.8-0.2-0.3-0.4-0.3-0.6-0.3z" fill="#B17095"/>
  <path d="m36.3 4.4c-2.9 3-6.5 4.1-9.6 5.5-3.7 1.6-6.3 3.5-8.6 8 4.3-5 8.1-6.3 12.6-6.6 0.1 3.7-2.5 13.9-8.4 18-2.3 1.6-5.8 3.6-11.3 4 1.7 0.6 3.3 0.7 4.9 0.7 6.9 0 13.3-4.2 17.2-12.3 2.2-4.8 3.3-13.5 3.2-17.3z" fill="#FCDFEC"/>
  <path d="m11.4 18.3c-3.5 4.6-3.9 9-4.2 14l1.2 1.4c2.6-0.3 4.7-0.9 6.5-1.9-1.8 0.2-4.9 0.4-6.3 0.1 1.4-2.8 4.5-6.9 7.5-9-3 1.2-6.6 4.4-8 7.6 0.3-4.3 1.2-8 3.3-12.2z" fill="#FAD9E9"/>
  <path d="m6.9 33.6c0.8-1.7 0.2-3.1-0.7-3.5-0.3-0.1-0.6-0.1-0.6-0.1 0.1 2.4-0.6 4.1-2.1 5.9-0.5 0.7 0.1 1.8 1.2 1.2 1.3-0.9 2.9-1.9 6-1.8 0.3 0-0.1-2-2.4-2.1-0.8 0-1.4 0.4-1.4 0.4z" fill="#DAE38A" stroke="#9FA463" stroke-linecap="round" stroke-linejoin="round" stroke-width=".75"/>
</svg>